<mxfile host="app.diagrams.net" modified="2022-07-25T08:36:32.678Z" agent="5.0 (Macintosh; Intel Mac OS X 10_15_7) AppleWebKit/537.36 (KHTML, like Gecko) Chrome/103.0.0.0 Safari/537.36" etag="9VI9YJNi5gHXtaLjPjW_" version="20.0.4" type="github">
  <diagram id="VwvJZKRiyHA4dT9fvT3-" name="Page-1">
    <mxGraphModel dx="1234" dy="826" grid="0" gridSize="10" guides="1" tooltips="1" connect="1" arrows="1" fold="1" page="1" pageScale="1" pageWidth="1169" pageHeight="1654" math="0" shadow="0">
      <root>
        <mxCell id="0" />
        <mxCell id="1" parent="0" />
        <mxCell id="maCfC5i0q_QA7g9tsCM1-25" value="" style="rounded=1;whiteSpace=wrap;html=1;dashed=1;" vertex="1" parent="1">
          <mxGeometry x="740" y="330" width="200" height="250" as="geometry" />
        </mxCell>
        <mxCell id="maCfC5i0q_QA7g9tsCM1-9" value="" style="edgeStyle=orthogonalEdgeStyle;rounded=0;orthogonalLoop=1;jettySize=auto;html=1;" edge="1" parent="1" source="maCfC5i0q_QA7g9tsCM1-1" target="maCfC5i0q_QA7g9tsCM1-2">
          <mxGeometry relative="1" as="geometry" />
        </mxCell>
        <mxCell id="maCfC5i0q_QA7g9tsCM1-1" value="边缘mqtt" style="rounded=1;whiteSpace=wrap;html=1;" vertex="1" parent="1">
          <mxGeometry x="120" y="220" width="120" height="60" as="geometry" />
        </mxCell>
        <mxCell id="maCfC5i0q_QA7g9tsCM1-15" value="" style="edgeStyle=orthogonalEdgeStyle;rounded=0;orthogonalLoop=1;jettySize=auto;html=1;" edge="1" parent="1" source="maCfC5i0q_QA7g9tsCM1-2" target="maCfC5i0q_QA7g9tsCM1-14">
          <mxGeometry relative="1" as="geometry" />
        </mxCell>
        <mxCell id="maCfC5i0q_QA7g9tsCM1-2" value="边缘业务服务" style="rounded=1;whiteSpace=wrap;html=1;" vertex="1" parent="1">
          <mxGeometry x="120" y="330" width="120" height="60" as="geometry" />
        </mxCell>
        <mxCell id="maCfC5i0q_QA7g9tsCM1-8" value="" style="edgeStyle=orthogonalEdgeStyle;rounded=0;orthogonalLoop=1;jettySize=auto;html=1;" edge="1" parent="1" source="maCfC5i0q_QA7g9tsCM1-5" target="maCfC5i0q_QA7g9tsCM1-1">
          <mxGeometry relative="1" as="geometry" />
        </mxCell>
        <mxCell id="maCfC5i0q_QA7g9tsCM1-5" value="边缘算法" style="rounded=1;whiteSpace=wrap;html=1;" vertex="1" parent="1">
          <mxGeometry x="120" y="110" width="120" height="60" as="geometry" />
        </mxCell>
        <mxCell id="maCfC5i0q_QA7g9tsCM1-10" value="Publish" style="text;html=1;strokeColor=none;fillColor=none;align=center;verticalAlign=middle;whiteSpace=wrap;rounded=0;" vertex="1" parent="1">
          <mxGeometry x="200" y="180" width="60" height="30" as="geometry" />
        </mxCell>
        <mxCell id="maCfC5i0q_QA7g9tsCM1-11" value="Subscribe track &amp;amp; path" style="text;html=1;strokeColor=none;fillColor=none;align=center;verticalAlign=middle;whiteSpace=wrap;rounded=0;" vertex="1" parent="1">
          <mxGeometry x="200" y="290" width="80" height="30" as="geometry" />
        </mxCell>
        <mxCell id="maCfC5i0q_QA7g9tsCM1-17" style="edgeStyle=orthogonalEdgeStyle;rounded=0;orthogonalLoop=1;jettySize=auto;html=1;exitX=0.783;exitY=0.042;exitDx=0;exitDy=0;exitPerimeter=0;entryX=0.75;entryY=1;entryDx=0;entryDy=0;" edge="1" parent="1" source="maCfC5i0q_QA7g9tsCM1-12" target="maCfC5i0q_QA7g9tsCM1-14">
          <mxGeometry relative="1" as="geometry" />
        </mxCell>
        <mxCell id="maCfC5i0q_QA7g9tsCM1-12" value="rex_log_db&lt;br&gt;日志queue" style="shape=cylinder3;whiteSpace=wrap;html=1;boundedLbl=1;backgroundOutline=1;size=15;" vertex="1" parent="1">
          <mxGeometry x="120" y="495" width="120" height="60" as="geometry" />
        </mxCell>
        <mxCell id="maCfC5i0q_QA7g9tsCM1-16" style="edgeStyle=orthogonalEdgeStyle;rounded=0;orthogonalLoop=1;jettySize=auto;html=1;exitX=0.25;exitY=1;exitDx=0;exitDy=0;entryX=0.258;entryY=0.025;entryDx=0;entryDy=0;entryPerimeter=0;" edge="1" parent="1" source="maCfC5i0q_QA7g9tsCM1-14" target="maCfC5i0q_QA7g9tsCM1-12">
          <mxGeometry relative="1" as="geometry" />
        </mxCell>
        <mxCell id="maCfC5i0q_QA7g9tsCM1-22" value="" style="edgeStyle=orthogonalEdgeStyle;rounded=0;orthogonalLoop=1;jettySize=auto;html=1;" edge="1" parent="1" source="maCfC5i0q_QA7g9tsCM1-14" target="maCfC5i0q_QA7g9tsCM1-21">
          <mxGeometry relative="1" as="geometry" />
        </mxCell>
        <mxCell id="maCfC5i0q_QA7g9tsCM1-14" value="RexLog SDK" style="rounded=1;whiteSpace=wrap;html=1;" vertex="1" parent="1">
          <mxGeometry x="120" y="420" width="120" height="40" as="geometry" />
        </mxCell>
        <mxCell id="maCfC5i0q_QA7g9tsCM1-18" value="provider&lt;br&gt;thread" style="text;html=1;strokeColor=none;fillColor=none;align=center;verticalAlign=middle;whiteSpace=wrap;rounded=0;" vertex="1" parent="1">
          <mxGeometry x="70" y="465" width="60" height="30" as="geometry" />
        </mxCell>
        <mxCell id="maCfC5i0q_QA7g9tsCM1-20" value="consumer&lt;br&gt;thread" style="text;html=1;strokeColor=none;fillColor=none;align=center;verticalAlign=middle;whiteSpace=wrap;rounded=0;" vertex="1" parent="1">
          <mxGeometry x="220" y="465" width="60" height="30" as="geometry" />
        </mxCell>
        <mxCell id="maCfC5i0q_QA7g9tsCM1-24" value="" style="edgeStyle=orthogonalEdgeStyle;rounded=0;orthogonalLoop=1;jettySize=auto;html=1;" edge="1" parent="1" source="maCfC5i0q_QA7g9tsCM1-21" target="maCfC5i0q_QA7g9tsCM1-23">
          <mxGeometry relative="1" as="geometry" />
        </mxCell>
        <mxCell id="maCfC5i0q_QA7g9tsCM1-21" value="project: rex-skyeye-pub&lt;br&gt;logstore: edge-service" style="rounded=1;whiteSpace=wrap;html=1;" vertex="1" parent="1">
          <mxGeometry x="284" y="410" width="150" height="60" as="geometry" />
        </mxCell>
        <mxCell id="maCfC5i0q_QA7g9tsCM1-32" style="edgeStyle=orthogonalEdgeStyle;rounded=0;orthogonalLoop=1;jettySize=auto;html=1;entryX=0;entryY=0.5;entryDx=0;entryDy=0;" edge="1" parent="1" target="maCfC5i0q_QA7g9tsCM1-29">
          <mxGeometry relative="1" as="geometry">
            <mxPoint x="570" y="440" as="sourcePoint" />
          </mxGeometry>
        </mxCell>
        <mxCell id="maCfC5i0q_QA7g9tsCM1-38" value="logTag=TRACK" style="edgeLabel;html=1;align=center;verticalAlign=middle;resizable=0;points=[];" vertex="1" connectable="0" parent="maCfC5i0q_QA7g9tsCM1-32">
          <mxGeometry x="-0.2421" y="-1" relative="1" as="geometry">
            <mxPoint x="38" y="-1" as="offset" />
          </mxGeometry>
        </mxCell>
        <mxCell id="maCfC5i0q_QA7g9tsCM1-23" value="rex-log&lt;br&gt;blink" style="rounded=1;whiteSpace=wrap;html=1;" vertex="1" parent="1">
          <mxGeometry x="470" y="410" width="120" height="60" as="geometry" />
        </mxCell>
        <mxCell id="maCfC5i0q_QA7g9tsCM1-27" value="project: rex-skyeye-inner" style="text;html=1;strokeColor=none;fillColor=none;align=center;verticalAlign=middle;whiteSpace=wrap;rounded=0;dashed=1;" vertex="1" parent="1">
          <mxGeometry x="770" y="540" width="140" height="30" as="geometry" />
        </mxCell>
        <mxCell id="maCfC5i0q_QA7g9tsCM1-28" value="logstore: edge-service-api" style="rounded=1;whiteSpace=wrap;html=1;" vertex="1" parent="1">
          <mxGeometry x="760" y="360" width="160" height="40" as="geometry" />
        </mxCell>
        <mxCell id="maCfC5i0q_QA7g9tsCM1-29" value="logstore: rex-edge-track" style="rounded=1;whiteSpace=wrap;html=1;" vertex="1" parent="1">
          <mxGeometry x="760" y="420" width="160" height="40" as="geometry" />
        </mxCell>
        <mxCell id="maCfC5i0q_QA7g9tsCM1-30" value="logstore: rex-edge-path" style="rounded=1;whiteSpace=wrap;html=1;" vertex="1" parent="1">
          <mxGeometry x="760" y="480" width="160" height="40" as="geometry" />
        </mxCell>
        <mxCell id="maCfC5i0q_QA7g9tsCM1-34" value="" style="endArrow=classic;html=1;rounded=0;entryX=0;entryY=0.5;entryDx=0;entryDy=0;endFill=1;edgeStyle=orthogonalEdgeStyle;" edge="1" parent="1" target="maCfC5i0q_QA7g9tsCM1-28">
          <mxGeometry width="50" height="50" relative="1" as="geometry">
            <mxPoint x="590" y="440" as="sourcePoint" />
            <mxPoint x="650" y="360" as="targetPoint" />
            <Array as="points">
              <mxPoint x="610" y="440" />
              <mxPoint x="610" y="380" />
            </Array>
          </mxGeometry>
        </mxCell>
        <mxCell id="maCfC5i0q_QA7g9tsCM1-37" value="logTag=NETWORK_AP" style="edgeLabel;html=1;align=center;verticalAlign=middle;resizable=0;points=[];" vertex="1" connectable="0" parent="maCfC5i0q_QA7g9tsCM1-34">
          <mxGeometry x="0.48" y="-3" relative="1" as="geometry">
            <mxPoint x="-15" y="-3" as="offset" />
          </mxGeometry>
        </mxCell>
        <mxCell id="maCfC5i0q_QA7g9tsCM1-35" value="" style="endArrow=classic;html=1;rounded=0;entryX=0;entryY=0.5;entryDx=0;entryDy=0;endFill=1;edgeStyle=orthogonalEdgeStyle;" edge="1" parent="1" target="maCfC5i0q_QA7g9tsCM1-30">
          <mxGeometry width="50" height="50" relative="1" as="geometry">
            <mxPoint x="590" y="440" as="sourcePoint" />
            <mxPoint x="650" y="360" as="targetPoint" />
            <Array as="points">
              <mxPoint x="610" y="440" />
              <mxPoint x="610" y="500" />
            </Array>
          </mxGeometry>
        </mxCell>
        <mxCell id="maCfC5i0q_QA7g9tsCM1-39" value="logTag=PATH" style="edgeLabel;html=1;align=center;verticalAlign=middle;resizable=0;points=[];" vertex="1" connectable="0" parent="maCfC5i0q_QA7g9tsCM1-35">
          <mxGeometry x="0.16" y="-3" relative="1" as="geometry">
            <mxPoint x="25" y="-3" as="offset" />
          </mxGeometry>
        </mxCell>
        <mxCell id="maCfC5i0q_QA7g9tsCM1-40" value="sunfire&lt;br&gt;odps&lt;br&gt;..." style="rounded=1;whiteSpace=wrap;html=1;dashed=1;" vertex="1" parent="1">
          <mxGeometry x="990" y="375" width="100" height="130" as="geometry" />
        </mxCell>
        <mxCell id="maCfC5i0q_QA7g9tsCM1-41" value="" style="shape=flexArrow;endArrow=classic;startArrow=none;html=1;rounded=0;startFill=0;" edge="1" parent="1">
          <mxGeometry width="100" height="100" relative="1" as="geometry">
            <mxPoint x="940" y="439.5" as="sourcePoint" />
            <mxPoint x="990" y="439.5" as="targetPoint" />
          </mxGeometry>
        </mxCell>
      </root>
    </mxGraphModel>
  </diagram>
</mxfile>
